# Blender v2.79 (sub 0) OBJ File: 'fantasma.blend'
# www.blender.org
mtllib fantasma.mtl
o Cube.004_Cube.006
v 3.212309 6.290809 3.419162
v 3.972404 4.596426 3.091792
v 4.395200 6.265701 1.950833
v 5.096862 6.284154 3.484460
vn -0.0346 -0.2045 0.9782
vn 0.8116 -0.4556 -0.3658
vn -0.7609 -0.2236 -0.6091
vn 0.0040 0.9999 -0.0139
g Cube.004_Cube.006
usemtl (null)
s off
f 1//1 2//1 4//1
f 4//2 2//2 3//2
f 3//3 2//3 1//3
f 1//4 4//4 3//4
o Cube.003_Cube.005
v 4.735725 6.290809 -1.798511
v 4.654661 4.596426 -2.622128
v 3.695999 6.265701 -3.371467
v 5.370285 6.284154 -3.574219
vn 0.9215 -0.2045 0.3301
vn -0.1021 -0.4556 -0.8843
vn -0.8115 -0.2236 0.5399
vn -0.0120 0.9999 -0.0080
g Cube.003_Cube.005
usemtl (null)
s off
f 5//5 6//5 8//5
f 8//6 6//6 7//6
f 7//7 6//7 5//7
f 5//8 8//8 7//8
o Cube.002_Cube.004
v -5.879406 1.357145 -1.951638
v -7.009934 1.283394 -0.499667
v -5.666023 -0.158978 -0.928118
v -4.999681 1.227449 -0.338872
vn 0.0223 0.9974 0.0680
vn -0.0844 -0.3551 0.9310
vn -0.6839 -0.4719 -0.5564
vn 0.8522 -0.2050 -0.4813
g Cube.002_Cube.004
usemtl (null)
s off
f 9//9 10//9 12//9
f 12//10 10//10 11//10
f 11//11 10//11 9//11
f 9//12 12//12 11//12
o Cube.001_Cube.002
v -3.745096 1.778319 1.014939
v -3.069221 3.306817 1.888288
v -4.140559 1.830675 2.857958
v -2.571600 1.378163 2.435724
vn 0.7736 0.0198 -0.6334
vn 0.3339 0.3361 0.8806
vn -0.8504 0.4882 -0.1963
vn -0.2854 -0.9578 -0.0340
g Cube.001_Cube.002
usemtl (null)
s off
f 13//13 14//13 16//13
f 16//14 14//14 15//14
f 15//15 14//15 13//15
f 13//16 16//16 15//16
o Cube_Cube.001
v -4.698959 4.166334 -2.583843
v -3.703316 5.870187 -0.138688
v -4.707421 2.589126 0.133792
v -2.212943 2.925575 -1.116383
vn 0.6116 0.5103 -0.6046
vn 0.4541 -0.0652 0.8886
vn -0.9379 0.3013 0.1719
vn -0.1339 -0.8569 -0.4977
g Cube_Cube.001
usemtl (null)
s off
f 17//17 18//17 20//17
f 20//18 18//18 19//18
f 19//19 18//19 17//19
f 17//20 20//20 19//20
o Icosphere
v 0.000000 13.526068 0.000000
v -1.959083 9.874247 -2.890466
v 1.430217 9.634777 -4.401830
v 4.872981 9.875746 -0.000000
v 1.426823 10.074579 4.391384
v -1.846451 10.001304 2.808636
v -1.134949 3.606100 -3.493078
v 2.971400 3.606100 -2.158822
v 2.971400 3.606100 2.158822
v -1.134949 3.606100 3.493078
v -1.653525 3.606100 -0.000000
v -2.486363 0.334159 -0.000000
vt 0.097662 0.732354
vt 0.394794 0.690593
vt 0.279029 0.608398
vt 0.437656 0.380165
vt 0.185813 0.499593
vt 0.390871 0.605314
vt 0.305608 0.942838
vt 0.097812 0.942838
vt 0.124456 0.551838
vt 0.175689 0.169618
vt 0.465889 0.283604
vt 0.770077 0.195173
vt 0.495190 0.148284
vt 0.479082 0.515027
vt 0.756015 0.409131
vt 0.448171 0.751816
vt 0.753658 0.613810
vt 0.494076 0.878219
vt 0.775261 0.827146
vt 0.333114 0.102931
vt 0.020750 0.241886
vt 0.104025 0.024364
vt 0.967801 0.197272
vt 0.992842 0.512463
vt 0.970250 0.818099
vn -0.2576 0.6809 -0.6856
vn -0.8835 0.4684 0.0070
vn 0.5335 0.7122 -0.4562
vn 0.5499 0.7341 0.3983
vn -0.3284 0.6878 0.6473
vn -0.9990 -0.0392 0.0206
vn -0.4050 0.0346 -0.9137
vn 0.7881 -0.0273 -0.6149
vn 0.7859 -0.0256 0.6179
vn -0.4357 0.0477 0.8988
vn -0.9826 -0.1152 -0.1459
vn 0.2980 -0.2650 -0.9170
vn 0.9570 -0.2902 0.0000
vn 0.2995 -0.2466 0.9217
vn -0.9848 -0.0939 0.1462
vn -0.9592 0.2442 -0.1424
vn 0.2035 -0.7526 -0.6262
vn 0.5142 -0.8577 0.0000
vn 0.2035 -0.7526 0.6262
vn -0.9592 0.2442 0.1424
g Icosphere_Icosphere
usemtl (null)
s off
f 21/1/21 23/2/21 22/3/21
f 22/4/22 26/5/22 21/6/22
f 21/1/23 24/7/23 23/2/23
f 21/1/24 25/8/24 24/7/24
f 21/6/25 26/5/25 25/9/25
f 22/4/26 31/10/26 26/5/26
f 23/11/27 27/12/27 22/13/27
f 24/14/28 28/15/28 23/11/28
f 25/16/29 29/17/29 24/14/29
f 26/18/30 30/19/30 25/16/30
f 22/4/31 27/20/31 31/10/31
f 23/11/32 28/15/32 27/12/32
f 24/14/33 29/17/33 28/15/33
f 25/16/34 30/19/34 29/17/34
f 26/5/35 31/10/35 30/21/35
f 27/20/36 32/22/36 31/10/36
f 28/15/37 32/23/37 27/12/37
f 29/17/38 32/24/38 28/15/38
f 30/19/39 32/25/39 29/17/39
f 31/10/40 32/22/40 30/21/40
